<svg width="72" height="80" viewBox="0 0 72 80" fill="none" xmlns="http://www.w3.org/2000/svg">
<path d="M65.6923 0.769867H6.30766C3.26299 0.769867 0.7948 3.23806 0.7948 6.28273C0.7948 9.32739 3.26299 11.7956 6.30766 11.7956H65.6923C68.737 11.7956 71.2052 9.32739 71.2052 6.28273C71.2052 3.23806 68.737 0.769867 65.6923 0.769867Z" fill="#FFC533"/>
<path d="M65.6923 20.5554H6.30766C3.26299 20.5554 0.7948 23.0236 0.7948 26.0682C0.7948 29.1129 3.26299 31.5811 6.30766 31.5811H65.6923C68.737 31.5811 71.2052 29.1129 71.2052 26.0682C71.2052 23.0236 68.737 20.5554 65.6923 20.5554Z" fill="#FFC533"/>
<path d="M65.6923 40.3409H6.30766C3.26299 40.3409 0.7948 42.8091 0.7948 45.8538C0.7948 48.8984 3.26299 51.3666 6.30766 51.3666H65.6923C68.737 51.3666 71.2052 48.8984 71.2052 45.8538C71.2052 42.8091 68.737 40.3409 65.6923 40.3409Z" fill="#FFC533"/>
<path d="M32.453 78.5394L0.934362 60.1264H71.0657L39.5471 78.5394C39.1876 78.7494 38.6705 78.9238 38.0479 79.045C37.4253 79.1663 36.719 79.2301 36 79.2301C35.2811 79.2301 34.5748 79.1663 33.9521 79.045C33.3295 78.9238 32.8124 78.7494 32.453 78.5394Z" fill="#FFC533"/>
</svg>
