<?xml version="1.0" encoding="UTF-8" standalone="no"?>
<!-- Created with Inkscape (http://www.inkscape.org/) -->

<svg
   width="125.57898"
   height="70.562546"
   viewBox="0 0 33.226104 18.669673"
   version="1.1"
   id="svg5"
   inkscape:version="1.2.2 (732a01da63, 2022-12-09)"
   sodipodi:docname="MyProjectSite.svg"
   xml:space="preserve"
   xmlns:inkscape="http://www.inkscape.org/namespaces/inkscape"
   xmlns:sodipodi="http://sodipodi.sourceforge.net/DTD/sodipodi-0.dtd"
   xmlns="http://www.w3.org/2000/svg"
   xmlns:svg="http://www.w3.org/2000/svg"><sodipodi:namedview
     id="namedview7"
     pagecolor="#ffffff"
     bordercolor="#000000"
     borderopacity="0.25"
     inkscape:showpageshadow="2"
     inkscape:pageopacity="0.0"
     inkscape:pagecheckerboard="0"
     inkscape:deskcolor="#d1d1d1"
     inkscape:document-units="mm"
     showgrid="false"
     inkscape:zoom="0.33071229"
     inkscape:cx="830.02661"
     inkscape:cy="1493.7455"
     inkscape:window-width="1366"
     inkscape:window-height="705"
     inkscape:window-x="-8"
     inkscape:window-y="-8"
     inkscape:window-maximized="1"
     inkscape:current-layer="layer1" /><defs
     id="defs2" /><g
     inkscape:label="Слой 1"
     inkscape:groupmode="layer"
     id="layer1"
     transform="translate(-422.31388,-60.956967)"><g
       id="g13877"
       inkscape:label="logo"
       transform="matrix(-0.16015187,0,0,0.16015187,530.37751,48.69656)"
       inkscape:export-filename="car.svg"
       inkscape:export-xdpi="96"
       inkscape:export-ydpi="96"><ellipse
         style="fill:#000000;fill-opacity:1;stroke:#000000;stroke-width:0.637796;stroke-dasharray:none;stroke-opacity:1"
         id="path12136-2"
         cx="487.84381"
         cy="181.28891"
         rx="9.8989906"
         ry="10.911399" /><ellipse
         style="fill:#ffffff;fill-opacity:1;stroke:#000000;stroke-width:0.433662;stroke-dasharray:none;stroke-opacity:1"
         id="path12136-5-0"
         cx="489.14508"
         cy="181.23671"
         rx="6.3568163"
         ry="7.8554454" /><ellipse
         style="fill:#000000;fill-opacity:1;stroke:#000000;stroke-width:0.637796;stroke-dasharray:none;stroke-opacity:1"
         id="path12136-45"
         cx="609.95667"
         cy="181.89937"
         rx="9.8989906"
         ry="10.911399" /><ellipse
         style="fill:#ffffff;fill-opacity:1;stroke:#000000;stroke-width:0.433662;stroke-dasharray:none;stroke-opacity:1"
         id="path12136-5-8"
         cx="611.25793"
         cy="181.84717"
         rx="6.3568163"
         ry="7.8554454" /><path
         id="rect11616"
         d="m 542.17948,81.286301 38.65017,-3.96 c 27.59445,-0.309529 53.02294,-0.240214 80.65098,-0.240214 3.86619,-2e-6 8.20042,7.334379 8.20042,11.200571 V 176.94391 H 533.57904 V 89.88674 c 0,-4.749892 3.85055,-8.60044 8.60044,-8.600439 z"
         style="opacity:1;fill:#abc4ff;fill-opacity:1;stroke:#000000;stroke-width:1.04916;stroke-dasharray:none;stroke-opacity:1"
         sodipodi:nodetypes="sccsccss" /><path
         style="opacity:1;fill:none;fill-opacity:1;stroke:#000000;stroke-width:1;stroke-dasharray:none;stroke-opacity:1"
         d="m 580.82965,77.326301 c -4.27769,2.243616 -7.20256,6.776616 -6.60035,17.278525 l 0.1,82.339084"
         id="path11807"
         sodipodi:nodetypes="ccc" /><path
         style="opacity:1;fill:#3b3b3b;fill-opacity:1;stroke:#ffe200;stroke-width:0.543999;stroke-dasharray:none;stroke-opacity:1"
         d="m 524.12675,176.67191 c 2.74325,-18.25835 23.78188,-15.51735 24.44816,0"
         id="path13735"
         sodipodi:nodetypes="cc" /><path
         style="opacity:1;fill:#ff0000;fill-opacity:1;stroke:none;stroke-width:1;stroke-dasharray:none;stroke-opacity:1"
         d="m 528.47697,117.90602 39.15198,0.1 -0.21751,58.9385 -19.09286,-5.3e-4 c -3.59825,-16.18159 -18.66924,-16.4867 -23.60089,0 h -2.28055 v -4.22427 H 472.4741 l 6.07531,-11.76143 28.68898,-5.23777 z"
         id="path11946"
         sodipodi:nodetypes="ccccccccccc" /><path
         style="opacity:1;fill:#b9b9b9;fill-opacity:1;stroke:none;stroke-width:1;stroke-dasharray:none;stroke-opacity:1"
         d="m 528.02694,120.60615 17.40088,0.30002 -11.84878,34.90178 -25.05311,-0.40002 z"
         id="path11942" /><path
         style="opacity:1;fill:#b9b9b9;fill-opacity:1;stroke:none;stroke-width:1;stroke-dasharray:none;stroke-opacity:1"
         d="m 549.72804,120.90617 13.00067,0.1 v 34.20175 l -24.30124,1.10578 z"
         id="path11944" /><rect
         style="opacity:1;fill:#ff0000;fill-opacity:1;stroke:#000000;stroke-width:0.589223;stroke-dasharray:none;stroke-opacity:1"
         id="rect11948"
         width="205.23669"
         height="4.5860319"
         x="469.22595"
         y="176.96652" /><path
         style="opacity:1;fill:#c1c1c1;fill-opacity:1;stroke:#000000;stroke-width:0.543999;stroke-dasharray:none;stroke-opacity:1"
         d="m 469.22594,180.63964 h -1.66309 v -7.4308 h 54.87429 v 7.50038 h -12.04859 v -3.7427 h -41.16261 z"
         id="path12052" /><path
         style="opacity:1;fill:#ffe100;fill-opacity:1;stroke:#000000;stroke-width:0.543999;stroke-dasharray:none;stroke-opacity:1"
         d="m 513.17617,162.6583 -2.69595,10.06142 h -7.40455 c 1.69889,-9.18927 2.48985,-10.7768 10.1005,-10.06142 z"
         id="path12056"
         sodipodi:nodetypes="cccc" /><path
         style="fill:#ffe100;fill-opacity:1;stroke:#000000;stroke-width:0.543999;stroke-dasharray:none;stroke-opacity:1"
         d="m 477.41023,163.16367 -4.93613,9.55605 h 7.43218 c 4.52396,-8.8357 5.53888,-10.05928 -2.49605,-9.55605 z"
         id="path12056-6"
         sodipodi:nodetypes="cccc" /><path
         style="opacity:1;fill:#5a5a5a;fill-opacity:1;stroke:#000000;stroke-width:0.543999;stroke-dasharray:none;stroke-opacity:1"
         d="m 485.67477,164.25838 h 17.72592 l -3.75719,6.50762 h -16.66494 z"
         id="path12082" /><ellipse
         style="opacity:1;fill:#000000;fill-opacity:1;stroke:#000000;stroke-width:0.637796;stroke-dasharray:none;stroke-opacity:1"
         id="path12136"
         cx="537.08789"
         cy="180.97002"
         rx="9.8989906"
         ry="10.911399" /><ellipse
         style="fill:#ffffff;fill-opacity:1;stroke:#000000;stroke-width:0.433662;stroke-dasharray:none;stroke-opacity:1"
         id="path12136-5"
         cx="538.38916"
         cy="180.91782"
         rx="6.3568163"
         ry="7.8554454" /><ellipse
         style="fill:#000000;fill-opacity:1;stroke:#000000;stroke-width:0.637796;stroke-dasharray:none;stroke-opacity:1"
         id="path12136-4"
         cx="645.76532"
         cy="181.28891"
         rx="9.8989906"
         ry="10.911399" /><ellipse
         style="fill:#ffffff;fill-opacity:1;stroke:#000000;stroke-width:0.433662;stroke-dasharray:none;stroke-opacity:1"
         id="path12136-5-2"
         cx="647.06659"
         cy="180.4525"
         rx="6.3568163"
         ry="7.8554454" /><g
         aria-label="Żużyk"
         transform="matrix(-0.99984663,0.01751337,0.01751337,0.99984663,0,0)"
         id="text21863-9"
         style="font-weight:bold;font-size:27.7276px;font-family:Cambria;-inkscape-font-specification:'Cambria, Bold';stroke-width:0.611319"
         inkscape:label="Title name company"><path
           d="m -650.61769,139.06044 h 3.87211 q 0.74464,0 1.24558,-0.29785 0.50094,-0.31139 0.86649,-0.96126 0.36555,-0.6634 0.75817,-2.28807 h 1.84129 v 5.15831 H -655.6 V 139.778 l 8.66488,-15.97586 h -3.66903 q -0.89357,0 -1.40805,0.32493 -0.51447,0.32494 -0.88002,1.0425 -0.36555,0.71756 -0.63633,1.90898 h -1.85482 v -4.88753 h 13.43055 v 0.89356 z m 3.64195,-21.86527 v 3.31703 h -3.70965 v -3.31703 z"
           id="path14178"
           style="fill:#2100b9;fill-opacity:1" /><path
           d="m -640.38231,127.24101 h 5.26662 v 7.51407 q 0,1.29974 0.0812,2.03083 0.0812,0.7311 0.3114,1.16435 0.23016,0.4197 0.55509,0.62279 0.33847,0.18954 0.85295,0.18954 0.50094,0 1.05603,-0.31139 0.55509,-0.3114 0.93418,-0.86649 0.39263,-0.56863 0.39263,-1.20496 v -5.226 q 0,-0.98834 -0.0406,-1.4622 -0.0406,-0.4874 -0.16246,-0.75818 -0.10831,-0.27078 -0.35201,-0.44678 -0.2437,-0.18954 -0.7988,-0.35201 v -0.89357 h 5.28016 v 9.47721 q 0,1.02895 0.0271,1.50281 0.0406,0.47387 0.16247,0.75818 0.12185,0.28432 0.39262,0.47386 0.27078,0.17601 0.90711,0.3114 v 0.9071 l -3.68257,0.12185 h -1.63821 l 0.12185,-1.9496 -0.16246,-0.0406 q -1.25912,1.16434 -2.24746,1.62466 -0.98833,0.46032 -1.99021,0.46032 -1.43512,0 -2.30161,-0.52801 -0.85295,-0.54156 -1.23203,-1.57051 -0.37909,-1.0425 -0.37909,-2.6807 v -4.95522 q 0,-0.75818 -0.0271,-1.16435 -0.0135,-0.40616 -0.0542,-0.62278 -0.0406,-0.23017 -0.12185,-0.40617 -0.0677,-0.18954 -0.20308,-0.33847 -0.12185,-0.14893 -0.35201,-0.27078 -0.21662,-0.12185 -0.59571,-0.21662 z"
           id="path14180" /><path
           d="m -619.2346,139.23645 h 2.8567 q 0.60925,0 1.02896,-0.25724 0.43324,-0.25724 0.77171,-0.89356 0.35201,-0.63633 0.63633,-1.7736 h 1.65174 v 4.35952 H -623.7972 V 139.778 l 6.9319,-11.10187 h -2.69423 q -0.64987,0 -1.04249,0.21663 -0.39263,0.21662 -0.71756,0.73109 -0.3114,0.51448 -0.7311,1.73298 h -1.65174 v -4.11582 h 11.39972 v 0.89357 z m 3.04625,-17.39744 v 3.31702 h -3.70965 v -3.31702 z"
           id="path14182" /><path
           d="m -603.4212,141.28082 q -0.88003,1.96313 -1.66528,3.07332 -0.77172,1.12373 -1.67882,1.67882 -0.89357,0.55509 -2.23392,0.55509 -1.01541,0 -1.89544,-0.25723 v -3.1004 h 1.51636 q 0.176,0.63632 0.43324,0.86648 0.27078,0.2437 0.74464,0.2437 0.51447,0 0.92064,-0.28431 0.41971,-0.28432 0.93418,-1.06957 0.52802,-0.77172 1.28619,-2.31515 h -0.77171 l -3.53364,-10.16769 q -0.37909,-1.06957 -0.60925,-1.4622 -0.21663,-0.40616 -0.50094,-0.60925 -0.27078,-0.21662 -0.67695,-0.29785 v -0.89357 h 6.7559 v 0.89357 q -0.63633,0.12185 -0.93418,0.36555 -0.29786,0.2437 -0.29786,0.7311 0,0.64986 0.35201,1.69236 l 1.9496,5.91648 2.15268,-5.18539 q 0.27078,-0.64986 0.40617,-1.13726 0.13538,-0.50094 0.13538,-0.9748 0,-0.56863 -0.32493,-0.93418 -0.32493,-0.37909 -0.92064,-0.47386 v -0.89357 h 5.26662 v 0.90711 q -0.39263,0.12185 -0.63633,0.29785 -0.23016,0.17601 -0.44678,0.46032 -0.20308,0.28432 -0.50094,0.85295 -0.29785,0.5551 -0.81233,1.69236 z"
           id="path14184" /><path
           d="m -586.29454,132.12854 3.49303,5.17185 q 0.77172,1.15081 1.13727,1.58405 0.36555,0.43324 0.63632,0.62279 0.27078,0.176 0.67695,0.27077 v 0.89357 h -6.62051 V 139.778 q 0.60925,-0.12185 0.60925,-0.63632 0,-0.35201 -0.2437,-0.82587 -0.23016,-0.4874 -0.92064,-1.50282 l -1.0425,-1.57051 q -0.35201,-0.52801 -0.56863,-0.75817 -0.21662,-0.2437 -0.43324,-0.36555 -0.20308,-0.12185 -0.58217,-0.12185 h -0.64987 v 2.76193 q 0,1.28619 0.0812,1.77359 0.0812,0.4874 0.32493,0.78525 0.25724,0.28432 0.94772,0.46032 v 0.89357 h -6.63405 V 139.778 q 0.40617,-0.0948 0.63633,-0.21662 0.23016,-0.13539 0.35201,-0.29785 0.13539,-0.17601 0.23016,-0.43325 0.0948,-0.27077 0.12185,-0.73109 0.0271,-0.47387 0.0271,-1.34035 v -10.56032 q 0,-1.16434 -0.0271,-1.7059 -0.0135,-0.55509 -0.0812,-0.92064 -0.0677,-0.37909 -0.20308,-0.59571 -0.13539,-0.23016 -0.39263,-0.36555 -0.25724,-0.13539 -0.82587,-0.2437 v -0.89356 l 3.7638,-0.18955 h 1.67882 v 11.41327 h 0.44678 q 0.47386,0 0.74464,-0.0948 0.27078,-0.0948 0.5551,-0.29785 0.29785,-0.21662 0.9071,-0.75818 0.60925,-0.55509 0.92064,-0.9748 0.3114,-0.43324 0.41971,-0.74463 0.10831,-0.32494 0.10831,-0.62279 0,-0.93418 -1.17788,-1.09665 v -0.86649 h 6.76943 v 0.86649 q -0.52802,0.0812 -1.17788,0.4874 -0.64987,0.40617 -2.04437,1.7059 z"
           id="path14186" /></g></g></g></svg>
