<svg width="79" height="41" viewBox="0 0 79 41" fill="none" xmlns="http://www.w3.org/2000/svg">
<path d="M47.6464 0H0V34.3873H47.6464V0Z" fill="black"/>
<path d="M47.6464 6.57822H60.2537C61.0026 6.57822 61.7208 6.90851 62.2503 7.49643C62.7798 8.08435 63.0773 8.88174 63.0773 9.71319V34.3873H47.6464V6.57822Z" fill="black"/>
<path d="M63.0773 18.4163H75.2672C75.7574 18.4163 76.2428 18.5235 76.6957 18.7318C77.1486 18.9401 77.5601 19.2453 77.9067 19.6302C78.2533 20.0151 78.5283 20.4719 78.7159 20.9748C78.9035 21.4776 79 22.0166 79 22.5608V36.1468H63.0773V18.4163Z" fill="black"/>
<path d="M9.94889 41C13.2382 41 15.9047 38.0393 15.9047 34.3872C15.9047 30.7352 13.2382 27.7745 9.94889 27.7745C6.65959 27.7745 3.99309 30.7352 3.99309 34.3872C3.99309 38.0393 6.65959 41 9.94889 41Z" fill="black" stroke="white" stroke-width="0.438425"/>
<path d="M68.627 41C71.9163 41 74.5828 38.0393 74.5828 34.3872C74.5828 30.7352 71.9163 27.7745 68.627 27.7745C65.3377 27.7745 62.6712 30.7352 62.6712 34.3872C62.6712 38.0393 65.3377 41 68.627 41Z" fill="black" stroke="white" stroke-width="0.438425"/>
<path d="M60.4997 8.98846H50.224C49.8053 8.98846 49.4659 9.36529 49.4659 9.83012V16.0022C49.4659 16.4671 49.8053 16.8439 50.224 16.8439H60.4997C60.9183 16.8439 61.2577 16.4671 61.2577 16.0022V9.83012C61.2577 9.36529 60.9183 8.98846 60.4997 8.98846Z" fill="white" stroke="white" stroke-width="0.54562"/>
<path d="M20.311 8.65107C22.006 7.02988 25.9088 6.96841 28.0901 8.21851C29.9879 9.19655 32.0023 10.9586 32.9186 14.879C33.4441 16.6786 33.7594 18.4144 33.4265 19.9541C32.9452 21.3027 31.849 22.1171 30.4676 22.6837C28.6449 23.4047 26.9663 23.5922 25.3078 23.7052C23.4193 23.872 21.6671 23.5907 19.9987 22.9362C18.8951 22.4154 17.7957 21.8822 16.8551 20.8789C16.3036 20.1826 15.6931 19.6564 15.71 17.3192C15.7587 16.0606 15.8289 14.7858 16.6077 12.9726C16.9542 12.0419 17.3159 11.115 18.3153 10.2698C19.3588 10.3013 20.2387 10.0859 20.311 8.65107Z" fill="#FFE500" stroke="#F7F7F7" stroke-width="0.0657673"/>
<path d="M24.2119 12.2566C25.3022 12.0967 26.3068 13.3089 26.7112 14.8557C27.3027 17.0447 26.5891 17.9908 25.6853 18.3569C24.3551 18.5739 23.4875 17.5365 22.9451 16.1171C22.1378 14.0351 23.1327 12.4378 24.2119 12.2566Z" fill="#707CD6" stroke="black" stroke-width="0.0657673"/>
<path d="M25.725 13.615C25.5653 13.1055 24.1572 12.4428 23.9899 13.8138C23.6031 15.8277 24.2213 16.4826 24.7335 16.9633C25.7569 17.4381 25.9213 16.7933 26.1243 16.1988C26.3083 14.7993 26.0547 14.1711 25.725 13.615Z" fill="black" stroke="black" stroke-width="0.0657673"/>
<path d="M18.2289 10.1882C19.2842 10.3344 20.0726 9.87642 20.3214 8.61842L19.3237 8.6108C19.0064 8.3333 18.7463 7.94135 18.5206 7.48065L18.0524 7.83229C18.624 8.55351 18.4697 9.36679 18.2289 10.1882Z" fill="#F4E495" stroke="white" stroke-width="0.0657673"/>
<path d="M28.2071 11.2076C27.1518 11.3538 26.267 10.9416 26.0182 9.68365C26.037 9.04764 26.5791 8.96587 27.4772 9.10269C27.7945 8.82519 27.972 8.64729 28.1977 8.18658L28.7209 8.53058C27.4402 9.88628 29.1781 10.2639 28.2828 11.1541L28.2071 11.2076Z" fill="#F4E495" stroke="white" stroke-width="0.0657673"/>
<path d="M18.0398 7.81642C16.8376 6.05346 15.3582 4.13755 13.9113 3.70829C12.6232 5.26065 12.169 6.82427 11.3408 8.72453C10.9054 9.38563 10.4143 9.69153 10.2194 8.46375C10.3458 6.70776 10.5674 5.18002 13.2492 3.03802C13.8846 2.2989 14.3732 2.47284 14.8266 2.86504C16.3547 3.9749 17.4953 5.62254 18.5071 7.44884L18.0398 7.81642Z" fill="#F4E495" stroke="#F7F7F7" stroke-width="0.0657673"/>
<path d="M13.5152 2.79102L13.218 3.0887C13.8278 3.09772 13.8079 3.30401 13.8177 3.84934L14.1623 3.73579C14.032 3.09059 13.9713 3.00942 13.5152 2.79102Z" fill="#FFD200" stroke="black" stroke-width="0.0328838"/>
<path d="M28.2343 8.14077C29.722 5.86107 31.946 3.57411 35.6712 2.08261C38.418 2.66296 40.4073 3.75519 41.0773 5.54617C41.7199 7.76838 40.6008 7.29997 39.8894 7.01644C38.3963 5.83931 36.9432 4.58836 35.6051 3.12454C33.1502 3.86851 30.8845 5.69308 28.7931 8.51266L28.2343 8.14077Z" fill="#F4E495" stroke="white" stroke-width="0.0657673"/>
<path d="M18.0203 11.5894C19.4052 10.9518 20.6739 10.3766 20.9122 11.3516C21.087 12.0222 20.7262 12.1779 20.5227 11.903C20.2084 11.2883 19.0869 11.4801 18.0203 11.5894Z" fill="#383838" stroke="black" stroke-width="0.0657673"/>
<path d="M26.7745 13.1804C25.7124 11.1644 22.9922 10.3531 22.6158 11.9182C22.4409 12.5888 22.6778 12.6987 22.8813 12.4237C23.6082 11.1982 26.2811 12.2225 26.7745 13.1804Z" fill="#383838" stroke="black" stroke-width="0.0657673"/>
<path d="M17.0816 20.094C20.985 24.7372 35.5207 22.5994 29.337 15.171C32.3674 19.3552 22.4403 25.2133 17.0816 20.094Z" fill="white" stroke="black" stroke-width="0.0657673"/>
<path d="M19.2986 11.731C17.9481 11.7697 17.2463 12.8335 16.8475 14.376C16.5158 16.2766 16.9572 17.2115 17.7977 17.6478C19.3976 18.0744 20.1233 17.0292 20.593 15.5532C21.0211 12.9291 20.3691 12.0013 19.2986 11.731Z" fill="#707CD6" stroke="black" stroke-width="0.0657673"/>
<path d="M18.5275 12.8318C18.9264 12.55 19.6301 11.6621 20.0697 13.214C20.511 15.2884 19.9444 15.7051 19.4225 16.1953C18.3992 16.6701 18.2347 16.0254 18.0318 15.4309C17.8478 14.0313 18.129 13.342 18.5275 12.8318Z" fill="black" stroke="black" stroke-width="0.0657673"/>
<g filter="url(#filter0_f_8_245)">
<path d="M19.1288 13.7689C19.3848 13.6006 19.4496 13.1963 19.2734 12.8659C19.0973 12.5355 18.7469 12.4041 18.4908 12.5724C18.2347 12.7407 18.17 13.145 18.3461 13.4754C18.5223 13.8058 18.8727 13.9372 19.1288 13.7689Z" fill="#FBFCFF"/>
<path d="M19.1288 13.7689C19.3848 13.6006 19.4496 13.1963 19.2734 12.8659C19.0973 12.5355 18.7469 12.4041 18.4908 12.5724C18.2347 12.7407 18.17 13.145 18.3461 13.4754C18.5223 13.8058 18.8727 13.9372 19.1288 13.7689Z" stroke="#F7F7F7" stroke-width="0.06955"/>
</g>
<g filter="url(#filter1_f_8_245)">
<path d="M24.8533 14.4039C25.1093 14.2356 25.1741 13.8313 24.9979 13.5009C24.8217 13.1705 24.4714 13.0391 24.2153 13.2074C23.9592 13.3757 23.8945 13.78 24.0706 14.1104C24.2468 14.4408 24.5972 14.5722 24.8533 14.4039Z" fill="white"/>
<path d="M24.8533 14.4039C25.1093 14.2356 25.1741 13.8313 24.9979 13.5009C24.8217 13.1705 24.4714 13.0391 24.2153 13.2074C23.9592 13.3757 23.8945 13.78 24.0706 14.1104C24.2468 14.4408 24.5972 14.5722 24.8533 14.4039Z" stroke="#F7F7F7" stroke-width="0.06955"/>
</g>
<g filter="url(#filter2_f_8_245)">
<path d="M18.1626 13.214C17.7309 13.5337 17.3195 14.6225 17.6324 15.8055C17.8679 16.5202 18.1715 16.5286 18.4586 16.7075C19.2268 16.8253 19.5116 16.4288 19.8563 16.096L20.0835 15.4768C19.5577 16.2246 18.9922 16.766 18.1764 16.0042C17.6644 14.7719 17.9469 14.0128 18.1626 13.214Z" fill="#0054FF"/>
</g>
<g filter="url(#filter3_f_8_245)">
<path d="M23.8396 13.9255C23.4617 14.3497 23.2591 15.1716 23.5573 16.3258C23.7927 17.0405 24.0206 17.2553 24.3078 17.4342C25.0759 17.552 25.3195 17.5607 25.6641 17.2278L25.9671 16.8456C25.1559 17.4803 24.7654 17.1809 24.177 16.5093C23.665 15.2769 23.7547 14.6096 23.9704 13.8108L23.8396 13.9255Z" fill="#0054FF"/>
</g>
<path d="M16.1384 15.9965L16.7718 15.836" stroke="black" stroke-width="0.0657673"/>
<path d="M16.3655 17.1163L16.944 16.7878" stroke="black" stroke-width="0.0657673"/>
<path d="M16.8773 17.8535L17.2447 17.2585" stroke="black" stroke-width="0.0657673"/>
<path d="M17.4352 18.2622L17.5543 17.553" stroke="black" stroke-width="0.0657673"/>
<path d="M25.3321 19.1404L25.3404 18.4191" stroke="black" stroke-width="0.0657673"/>
<path d="M25.9776 18.2697L26.4035 18.8145" stroke="black" stroke-width="0.0657673"/>
<path d="M26.5085 17.718L27.0981 18.0208" stroke="black" stroke-width="0.0657673"/>
<path d="M26.8365 17.019L27.4861 17.0065" stroke="black" stroke-width="0.0657673"/>
<path d="M10.2586 8.031C10.8065 7.83096 11.1552 8.07346 11.429 8.48202C11.3397 8.73837 11.0956 9.31324 10.6235 9.26939C10.322 9.15088 10.2113 8.72018 10.2586 8.031Z" fill="#FFD200" stroke="black" stroke-width="0.0328838"/>
<path d="M10.4307 6.97614L10.3481 7.42716C10.9196 6.89483 11.4509 7.3188 11.6907 7.87818L11.8352 7.51126C11.4519 7.00236 11.0516 6.75471 10.4307 6.97614Z" fill="#FFD200" stroke="black" stroke-width="0.0328838"/>
<path d="M10.7401 6.05802L10.6575 6.50904C11.229 5.97671 11.7603 6.40068 12 6.96006L12.1446 6.59313C11.7612 6.08424 11.361 5.83659 10.7401 6.05802Z" fill="#FFD200" stroke="black" stroke-width="0.0328838"/>
<path d="M11.286 4.97489L11.1292 5.40095C11.78 4.99603 12.2309 5.52241 12.3727 6.12156L12.5763 5.79093C12.2849 5.21169 11.9332 4.88565 11.286 4.97489Z" fill="#FFD200" stroke="black" stroke-width="0.0328838"/>
<path d="M12.0376 4.19223L11.7611 4.54187C12.3804 4.27175 12.6889 4.73576 12.8386 5.27877L13.0722 4.91373C12.796 4.36137 12.6615 4.21176 12.0376 4.19223Z" fill="#FFD200" stroke="black" stroke-width="0.0328838"/>
<path d="M12.7768 3.44319L12.4518 3.76194C13.1844 3.6058 13.2493 3.96519 13.2134 4.58339L13.4662 4.21869C13.2924 3.75807 13.3336 3.53182 12.8732 3.38968L12.7768 3.44319Z" fill="#FFD200" stroke="black" stroke-width="0.0328838"/>
<path d="M36.167 2.19795L36.3154 2.25601C36.0224 2.35745 35.7678 2.83756 36.0432 3.34611L35.7185 3.19642C35.6505 2.53953 35.6563 2.51718 36.0224 2.14444L36.167 2.19795Z" fill="#FFD200" stroke="black" stroke-width="0.0328838"/>
<path d="M41.0556 5.62195C40.3038 5.6914 39.9537 6.51186 40.008 6.93374C40.1785 7.14325 40.5335 7.26152 40.9812 7.19991C41.2132 7.05622 41.3348 6.73902 41.1382 5.87421L41.0556 5.62195Z" fill="#FFD200" stroke="black" stroke-width="0.0328838"/>
<path d="M40.5712 4.75301L40.8393 5.12573C40.0783 4.662 39.6407 6.022 39.6042 6.70242L39.2617 6.4659C39.4378 5.81926 39.7994 4.68178 40.5712 4.75301Z" fill="#FFD200" stroke="#020202" stroke-width="0.0328838"/>
<path d="M39.7603 3.85425L40.1403 4.21284C39.1338 4.13262 38.9235 5.47337 38.9355 6.10986L38.587 5.86961C38.6303 5.0299 39.0229 4.16427 39.7603 3.85425Z" fill="#FFD200" stroke="black" stroke-width="0.0328838"/>
<path d="M39.0221 3.3781L39.379 3.6086C38.1672 3.42073 37.9499 4.80578 38.1631 5.43865L37.8041 5.1013C37.6827 4.32296 38.0971 3.37047 39.0221 3.3781Z" fill="#FFD200" stroke="black" stroke-width="0.0328838"/>
<path d="M38.0806 2.83679L38.576 3.16548C37.5656 2.93749 37.1541 3.98043 37.3015 4.62161L37.021 4.38506C37.0247 3.73521 37.2563 3.0126 38.0806 2.83679Z" fill="#FFD200" stroke="black" stroke-width="0.0328838"/>
<path d="M37.3122 2.55208L37.7066 2.72687C36.9733 2.59465 36.4403 3.1989 36.5971 3.97175L36.3193 3.68134C36.3532 3.05876 36.6797 2.61144 37.0607 2.54437L37.3122 2.55208Z" fill="#FFD200" stroke="black" stroke-width="0.0328838"/>
<path d="M21.8357 22.0662C21.8895 22.1885 21.8895 22.2904 21.8357 22.372" stroke="black" stroke-width="0.0328838"/>
<path d="M23.6255 22.0356C23.6456 22.1483 23.678 22.2358 23.612 22.5248" stroke="black" stroke-width="0.0328838"/>
<path d="M29.3404 18.6797C29.7314 19.2342 29.8621 19.9068 29.8499 20.6443" stroke="black" stroke-width="0.0328838"/>
<path d="M25.7326 21.4794C25.8099 21.7497 25.8436 22.0231 25.774 22.3137" stroke="black" stroke-width="0.025581"/>
<path d="M27.5919 20.4517C27.6707 20.9295 27.8003 21.365 28.0257 21.7207" stroke="black" stroke-width="0.0328838"/>
<defs>
<filter id="filter0_f_8_245" x="18.0714" y="12.3203" width="1.47679" height="1.70063" filterUnits="userSpaceOnUse" color-interpolation-filters="sRGB">
<feFlood flood-opacity="0" result="BackgroundImageFix"/>
<feBlend mode="normal" in="SourceGraphic" in2="BackgroundImageFix" result="shape"/>
<feGaussianBlur stdDeviation="0.0711839" result="effect1_foregroundBlur_8_245"/>
</filter>
<filter id="filter1_f_8_245" x="23.8433" y="13.0027" width="1.38199" height="1.60583" filterUnits="userSpaceOnUse" color-interpolation-filters="sRGB">
<feFlood flood-opacity="0" result="BackgroundImageFix"/>
<feBlend mode="normal" in="SourceGraphic" in2="BackgroundImageFix" result="shape"/>
<feGaussianBlur stdDeviation="0.0474834" result="effect1_foregroundBlur_8_245"/>
</filter>
<filter id="filter2_f_8_245" x="17.4479" y="13.1394" width="2.71016" height="3.66383" filterUnits="userSpaceOnUse" color-interpolation-filters="sRGB">
<feFlood flood-opacity="0" result="BackgroundImageFix"/>
<feBlend mode="normal" in="SourceGraphic" in2="BackgroundImageFix" result="shape"/>
<feGaussianBlur stdDeviation="0.0372875" result="effect1_foregroundBlur_8_245"/>
</filter>
<filter id="filter3_f_8_245" x="23.3784" y="13.7753" width="2.62415" height="3.76877" filterUnits="userSpaceOnUse" color-interpolation-filters="sRGB">
<feFlood flood-opacity="0" result="BackgroundImageFix"/>
<feBlend mode="normal" in="SourceGraphic" in2="BackgroundImageFix" result="shape"/>
<feGaussianBlur stdDeviation="0.0177681" result="effect1_foregroundBlur_8_245"/>
</filter>
</defs>
</svg>
