<?xml version="1.0" encoding="UTF-8" standalone="no"?>
<!-- Created with Inkscape (http://www.inkscape.org/) -->

<svg
   width="155"
   height="40"
   viewBox="0 0 41.010416 10.583333"
   version="1.1"
   id="svg5"
   xml:space="preserve"
   inkscape:version="1.2.2 (732a01da63, 2022-12-09)"
   sodipodi:docname="car.svg"
   xmlns:inkscape="http://www.inkscape.org/namespaces/inkscape"
   xmlns:sodipodi="http://sodipodi.sourceforge.net/DTD/sodipodi-0.dtd"
   xmlns="http://www.w3.org/2000/svg"
   xmlns:svg="http://www.w3.org/2000/svg"><sodipodi:namedview
     id="namedview7"
     pagecolor="#ffffff"
     bordercolor="#000000"
     borderopacity="0.25"
     inkscape:showpageshadow="2"
     inkscape:pageopacity="0.0"
     inkscape:pagecheckerboard="0"
     inkscape:deskcolor="#d1d1d1"
     inkscape:document-units="mm"
     showgrid="false"
     inkscape:zoom="3.7415825"
     inkscape:cx="40.357255"
     inkscape:cy="42.228122"
     inkscape:window-width="1350"
     inkscape:window-height="705"
     inkscape:window-x="-8"
     inkscape:window-y="-8"
     inkscape:window-maximized="0"
     inkscape:current-layer="layer1" /><defs
     id="defs2"><inkscape:path-effect
       effect="fillet_chamfer"
       id="path-effect397"
       is_visible="true"
       lpeversion="1"
       nodesatellites_param="F,0,0,1,0,0,0,1 @ F,0,0,1,0,0.36876881,0,1 @ F,0,0,1,0,0,0,1 @ F,0,0,1,0,0,0,1"
       unit="px"
       method="auto"
       mode="F"
       radius="0"
       chamfer_steps="1"
       flexible="false"
       use_knot_distance="true"
       apply_no_radius="true"
       apply_with_radius="true"
       only_selected="false"
       hide_knots="false" /><inkscape:path-effect
       effect="fillet_chamfer"
       id="path-effect395"
       is_visible="true"
       lpeversion="1"
       nodesatellites_param="F,0,0,1,0,0,0,1 @ F,0,0,1,0,0.48752487,0,1 @ F,0,0,1,0,0,0,1 @ F,0,0,1,0,0,0,1"
       unit="px"
       method="auto"
       mode="F"
       radius="0"
       chamfer_steps="1"
       flexible="false"
       use_knot_distance="true"
       apply_no_radius="true"
       apply_with_radius="true"
       only_selected="false"
       hide_knots="false" /><filter
       inkscape:collect="always"
       style="color-interpolation-filters:sRGB"
       id="filter4806"
       x="-0.27961673"
       y="-0.24060047"
       width="1.5592335"
       height="1.4812009"><feGaussianBlur
         inkscape:collect="always"
         stdDeviation="0.022512177"
         id="feGaussianBlur4808" /></filter><filter
       inkscape:collect="always"
       style="color-interpolation-filters:sRGB"
       id="filter4810"
       x="-0.033836809"
       y="-0.025939583"
       width="1.0676736"
       height="1.0518792"><feGaussianBlur
         inkscape:collect="always"
         stdDeviation="0.0084239576"
         id="feGaussianBlur4812" /></filter><filter
       inkscape:collect="always"
       style="color-interpolation-filters:sRGB"
       id="filter4814"
       x="-0.38655114"
       y="-0.3326138"
       width="1.7731023"
       height="1.6652276"><feGaussianBlur
         inkscape:collect="always"
         stdDeviation="0.033748712"
         id="feGaussianBlur4816" /></filter><filter
       inkscape:collect="always"
       style="color-interpolation-filters:sRGB"
       id="filter5094"
       x="-0.070788906"
       y="-0.057270447"
       width="1.1415778"
       height="1.1145409"><feGaussianBlur
         inkscape:collect="always"
         stdDeviation="0.017678261"
         id="feGaussianBlur5096" /></filter><filter
       inkscape:collect="always"
       style="color-interpolation-filters:sRGB"
       id="filter7767"
       x="-0.093777793"
       y="-0.36343555"
       width="1.1875556"
       height="1.7268711"><feGaussianBlur
         inkscape:collect="always"
         stdDeviation="0.28611799"
         id="feGaussianBlur7769" /></filter><filter
       inkscape:collect="always"
       style="color-interpolation-filters:sRGB"
       id="filter7879"
       x="-0.66653935"
       y="-0.67822095"
       width="2.3330787"
       height="2.3564419"><feGaussianBlur
         inkscape:collect="always"
         stdDeviation="0.51061669"
         id="feGaussianBlur7881" /></filter></defs><g
     inkscape:label="Слой 1"
     inkscape:groupmode="layer"
     id="layer1"><g
       id="g3699"
       inkscape:label="Car1"
       transform="matrix(2.0514704,0,0,2.1841915,-3.0464358,-13.869616)"><rect
         style="fill:#000000;stroke-width:0.116"
         id="rect234"
         width="6.222857"
         height="4.0450001"
         x="1.485"
         y="6.3499999" /><path
         style="fill:#000000;stroke-width:0.116"
         id="rect236"
         width="2.0153573"
         height="3.2711999"
         x="7.7078567"
         y="7.1237998"
         inkscape:path-effect="#path-effect397"
         d="M 7.7078567,7.1237998 H 9.3544451 A 0.36876881,0.36876881 45 0 1 9.7232139,7.4925686 V 10.395 H 7.7078567 Z"
         sodipodi:type="rect" /><path
         style="fill:#000000;stroke-width:0.116"
         id="rect238"
         width="2.0795898"
         height="2.085649"
         x="9.7232141"
         y="8.5163193"
         inkscape:path-effect="#path-effect395"
         d="m 9.7232141,8.5163193 h 1.5920649 a 0.48752487,0.48752487 45 0 1 0.487525,0.4875248 l 0,1.5981239 H 9.7232141 Z"
         sodipodi:type="rect" /><circle
         style="fill:#000000;stroke:none;stroke-width:0.116;stroke-opacity:1"
         id="path451"
         cx="2.7843747"
         cy="10.395"
         r="0.77785712" /><circle
         style="fill:#000000;stroke:none;stroke-width:0.116;stroke-opacity:1"
         id="path451-3"
         cx="10.448035"
         cy="10.395"
         r="0.77785712" /><rect
         style="fill:#ffffff;fill-opacity:1;stroke:#ffffff;stroke-width:0.144362;stroke-opacity:1"
         id="rect1614"
         width="1.5400666"
         height="0.9240399"
         x="7.9455018"
         y="7.4073215"
         ry="0.099004276" /><g
         inkscape:label="Слой 1"
         id="layer1-3"
         transform="matrix(0.55806753,0,0,0.55806753,2.481084,5.5134907)"><circle
           style="display:none;fill:#000000;fill-opacity:1;stroke:#ffffff;stroke-width:0.116;stroke-dasharray:none;stroke-opacity:1"
           id="path238"
           cx="4.2333331"
           cy="4.2333331"
           r="4.1751456" /><path
           style="fill:#fff700;fill-opacity:1;stroke:#f7f7f7;stroke-width:0.0311807;stroke-dasharray:none;stroke-opacity:1"
           d="M 2.968513,3.3224364 C 3.365211,2.9807175 4.2785786,2.9677608 4.7890766,3.2312608 5.233217,3.4374136 5.7046398,3.8088159 5.9190995,4.6351763 6.0420701,5.0144858 6.1158594,5.3803819 6.0379589,5.7049082 5.9253092,5.9891785 5.668764,6.1608336 5.3454751,6.2802551 4.9189005,6.4322346 4.5260637,6.4717547 4.1379356,6.4955795 3.6959689,6.5307436 3.2859006,6.4714332 2.8954294,6.3334792 2.6371503,6.2237184 2.3798624,6.1113139 2.1597218,5.8998501 2.030657,5.7530669 1.8877888,5.6421726 1.8917486,5.1495254 1.9031451,4.8842391 1.9195743,4.6155184 2.1018273,4.2333341 2.1829237,4.0371528 2.2675636,3.8417933 2.5014694,3.6636322 2.7456647,3.6702737 2.9515881,3.6248777 2.968513,3.3224364 Z"
           id="path3146"
           sodipodi:nodetypes="cccccccccccc" /><path
           style="fill:#707cd6;fill-opacity:1;stroke:#000000;stroke-width:0.0311807;stroke-dasharray:none;stroke-opacity:1"
           d="M 3.8814606,4.0824367 C 4.1366268,4.048721 4.3717199,4.3042391 4.4663656,4.6302814 4.6047846,5.0916701 4.4378009,5.2911034 4.2262809,5.3682607 3.9149682,5.413995 3.7119263,5.1953444 3.5849798,4.8961475 3.3960554,4.4573022 3.6288775,4.1206141 3.8814606,4.0824367 Z"
           id="path3406-3"
           sodipodi:nodetypes="ccccc" /><path
           style="fill:#000000;fill-opacity:1;stroke:#000000;stroke-width:0.0311807;stroke-dasharray:none;stroke-opacity:1"
           d="M 4.2355598,4.3687467 C 4.1981928,4.2613587 3.868654,4.1216711 3.8295101,4.4106396 3.7389659,4.8351332 3.8836647,4.9731879 4.0035319,5.0744989 4.2430323,5.1745781 4.2815155,5.03868 4.3290161,4.9133681 4.3720782,4.618369 4.3127163,4.4859561 4.2355598,4.3687467 Z"
           id="path3446-7"
           sodipodi:nodetypes="ccccc" /><path
           style="fill:#3f2b0f;fill-opacity:1;stroke:#ffffff;stroke-width:0.0311807;stroke-dasharray:none;stroke-opacity:1"
           d="M 2.4812512,3.6464401 C 2.7282111,3.6772544 2.912738,3.5807189 2.970959,3.3155557 L 2.7374651,3.3139499 C 2.6631973,3.2554564 2.6023309,3.1728415 2.5495162,3.075734 l -0.109569,0.07412 c 0.1337606,0.1520185 0.097649,0.32345 0.041303,0.4965919 z"
           id="path3352"
           sodipodi:nodetypes="cccccc" /><path
           style="fill:#3f2b0f;fill-opacity:1;stroke:#ffffff;stroke-width:0.0311807;stroke-dasharray:none;stroke-opacity:1"
           d="M 4.8164465,3.8613019 C 4.5694866,3.8921163 4.3624014,3.8052484 4.3041805,3.5400855 4.3085925,3.406027 4.435456,3.3887903 4.645632,3.417631 4.7198998,3.3591375 4.761431,3.3216395 4.8142452,3.2245317 l 0.1224592,0.072508 C 4.636979,3.5827965 5.0436917,3.6623833 4.8341712,3.850027 Z"
           id="path3352-9"
           sodipodi:nodetypes="ccccccc" /><path
           style="fill:#fff700;fill-opacity:1;stroke:#f7f7f7;stroke-width:0.0311807;stroke-dasharray:none;stroke-opacity:1"
           d="M 2.4369859,3.1465057 C 2.1556454,2.7749067 1.8094092,2.3710651 1.4708026,2.2805867 1.1693322,2.6077955 1.0630441,2.9373786 0.86921665,3.3379195 0.76733363,3.4772677 0.65238636,3.5417463 0.60677114,3.2829525 0.63635541,2.9128208 0.68822143,2.5908 1.3158486,2.1393044 1.4645494,1.9835114 1.5788846,2.0201737 1.6850035,2.1028432 2.0426215,2.3367826 2.3095572,2.6840748 2.5463653,3.0690266 Z"
           id="path3376"
           sodipodi:nodetypes="cccccccc" /><path
           style="fill:#ffd200;fill-opacity:1;stroke:#000000;stroke-width:0.0155904;stroke-dasharray:none;stroke-opacity:1"
           d="m 1.3780967,2.0872355 -0.069542,0.062747 c 0.1427033,0.0019 0.1380433,0.045382 0.1403273,0.1603294 L 1.529534,2.2863759 C 1.4990389,2.1503809 1.484847,2.1332704 1.3780982,2.0872351 Z"
           id="path4522-9"
           sodipodi:nodetypes="ccccc" /><path
           style="fill:#fff700;fill-opacity:1;stroke:#ffffff;stroke-width:0.0311807;stroke-dasharray:none;stroke-opacity:1"
           d="M 4.8228207,3.2148677 C 5.1709904,2.7343483 5.6914739,2.2522977 6.5632856,1.9379157 7.2061326,2.0602439 7.6716781,2.2904659 7.8284714,2.6679715 7.9788654,3.1363737 7.7169707,3.0376418 7.5504661,2.9778792 7.2010542,2.7297603 6.8609778,2.4660819 6.5478228,2.157535 5.9732921,2.3143519 5.4430499,2.698938 4.9535886,3.2932549 Z"
           id="path3378"
           sodipodi:nodetypes="ccccccc" /><path
           style="fill:#383838;fill-opacity:1;stroke:#000000;stroke-width:0.0311807;stroke-dasharray:none;stroke-opacity:1"
           d="M 2.4324286,3.9417839 C 2.7565325,3.8073841 3.053456,3.6861449 3.1092126,3.8916515 3.1501264,4.0329984 3.0656936,4.0658294 3.0180635,4.0078668 2.9445191,3.8783171 2.6820427,3.9187382 2.4324286,3.9417839 Z"
           id="path3380"
           sodipodi:nodetypes="cccc" /><path
           style="fill:#383838;fill-opacity:1;stroke:#000000;stroke-width:0.0311807;stroke-dasharray:none;stroke-opacity:1"
           d="M 4.4811719,4.2771373 C 4.2326081,3.8521984 3.5960017,3.6812063 3.5079071,4.0110896 c -0.040914,0.1413469 0.014515,0.16451 0.062145,0.1065477 0.1701178,-0.2583141 0.7956507,-0.042406 0.9111198,0.1595 z"
           id="path3380-8"
           sodipodi:nodetypes="cccc" /><path
           style="fill:#ffffff;fill-opacity:1;stroke:#000000;stroke-width:0.0311807;stroke-dasharray:none;stroke-opacity:1"
           d="M 2.2127524,5.7343874 C 3.1262546,6.7131006 6.5280641,6.2624862 5.0808817,4.6967048 5.7900946,5.5786634 3.4668363,6.8134416 2.2127524,5.7343874 Z"
           id="path3404"
           sodipodi:nodetypes="ccc" /><path
           style="fill:#707cd6;fill-opacity:1;stroke:#000000;stroke-width:0.0311807;stroke-dasharray:none;stroke-opacity:1"
           d="M 2.7315941,3.9716161 C 2.4155264,3.9797698 2.2512927,4.2039945 2.1579682,4.5291287 2.0803282,4.9297383 2.1836253,5.1267942 2.3803285,5.2187686 2.7547713,5.3086938 2.9245876,5.0883771 3.0345201,4.7772703 3.1347053,4.2241495 2.9821287,4.0285951 2.7315941,3.9716161 Z"
           id="path3406"
           sodipodi:nodetypes="ccccc" /><path
           style="fill:#000000;fill-opacity:1;stroke:#000000;stroke-width:0.0311807;stroke-dasharray:none;stroke-opacity:1"
           d="M 2.5511275,4.2036445 C 2.6444842,4.1442467 2.8091725,3.9571021 2.9120606,4.2842092 3.0153296,4.7214676 2.882732,4.8092934 2.7605971,4.9126198 2.5210967,5.012699 2.4826135,4.8768009 2.4351129,4.751489 2.3920508,4.4564899 2.4578577,4.3111866 2.5511275,4.2036445 Z"
           id="path3446"
           sodipodi:nodetypes="ccccc" /><ellipse
           style="fill:#fbfcff;fill-opacity:1;stroke:#f7f7f7;stroke-width:0.0329741;stroke-dasharray:none;stroke-opacity:1;filter:url(#filter4814)"
           id="path3528"
           cx="0.074335679"
           cy="5.0120349"
           rx="0.12609452"
           ry="0.14654227"
           transform="rotate(-30.625116)" /><ellipse
           style="fill:#ffffff;fill-opacity:1;stroke:#f7f7f7;stroke-width:0.0329741;stroke-dasharray:none;stroke-opacity:1;filter:url(#filter4806)"
           id="path3528-0"
           cx="1.1589991"
           cy="5.8096824"
           rx="0.12609452"
           ry="0.14654227"
           transform="rotate(-30.625116)" /><path
           style="fill:#0054ff;fill-opacity:1;stroke:none;stroke-width:0.0311807;stroke-dasharray:none;stroke-opacity:1;filter:url(#filter5094)"
           d="M 2.4657282,4.2842097 C 2.3646964,4.3515975 2.2684113,4.5810987 2.341657,4.8304434 2.3967595,4.98109 2.4678126,4.9828564 2.5350139,5.0205776 2.7147781,5.0453943 2.7814489,4.96183 2.8621092,4.8916733 L 2.9152833,4.7611571 C 2.7922286,4.9187918 2.6598876,5.0328997 2.4689505,4.8723366 2.3491424,4.6125832 2.4152461,4.4525876 2.4657282,4.2842097 Z"
           id="path3552"
           sodipodi:nodetypes="ccccccc" /><path
           style="opacity:1;fill:#0054ff;fill-opacity:1;stroke:none;stroke-width:0.0311807;stroke-dasharray:none;stroke-opacity:1;filter:url(#filter4810)"
           d="m 3.7943231,4.4341832 c -0.088441,0.089422 -0.1358482,0.2626633 -0.066064,0.5059511 0.055103,0.1506465 0.108431,0.1959183 0.1756326,0.2336395 0.1797642,0.024817 0.2367671,0.026652 0.3174274,-0.043505 l 0.070899,-0.080566 C 4.1023863,5.1834897 4.0110035,5.1203643 3.8732769,4.9788054 3.7534681,4.7190522 3.7744558,4.5783922 3.8249327,4.4100142 Z"
           id="path3552-3"
           sodipodi:nodetypes="cccccccc" /><path
           style="fill:none;stroke:#000000;stroke-width:0.0311807;stroke-dasharray:none;stroke-opacity:1"
           d="m 1.9920033,4.8707261 0.148241,-0.033837"
           id="path3599" /><path
           style="fill:none;stroke:#000000;stroke-width:0.0311807;stroke-dasharray:none;stroke-opacity:1"
           d="M 2.0451652,5.1067608 2.1805379,5.0375177"
           id="path3599-4" /><path
           style="fill:none;stroke:#000000;stroke-width:0.0311807;stroke-dasharray:none;stroke-opacity:1"
           d="M 2.1649288,5.2621381 2.2509081,5.1367276"
           id="path3599-9" /><path
           style="fill:none;stroke:#000000;stroke-width:0.0311807;stroke-dasharray:none;stroke-opacity:1"
           d="M 2.2955037,5.3482935 2.323359,5.1988116"
           id="path3599-2" /><path
           style="fill:none;stroke:#000000;stroke-width:0.0311807;stroke-dasharray:none;stroke-opacity:1"
           d="m 4.1436237,5.5333906 0.00215,-0.1520388"
           id="path3599-0" /><path
           style="fill:none;stroke:#000000;stroke-width:0.0311807;stroke-dasharray:none;stroke-opacity:1"
           d="m 4.2946725,5.3498817 0.099683,0.1148199"
           id="path3599-94" /><path
           style="fill:none;stroke:#000000;stroke-width:0.0311807;stroke-dasharray:none;stroke-opacity:1"
           d="M 4.4189188,5.233577 4.5569216,5.297416"
           id="path3599-5" /><path
           style="fill:none;stroke:#000000;stroke-width:0.0311807;stroke-dasharray:none;stroke-opacity:1"
           d="m 4.4956948,5.0864511 0.1520279,-0.00284"
           id="path3599-52" /><path
           style="fill:#ffd200;fill-opacity:1;stroke:#000000;stroke-width:0.0155904;stroke-dasharray:none;stroke-opacity:1"
           d="m 0.61594591,3.1917427 c 0.12823385,-0.042163 0.20982757,0.00895 0.27392251,0.095067 -0.0209036,0.054035 -0.0780438,0.1752071 -0.18852318,0.165965 -0.0705589,-0.02498 -0.0964638,-0.1157647 -0.0853993,-0.261032 z"
           id="path4520"
           sodipodi:nodetypes="cccc" /><path
           style="fill:#ffd200;fill-opacity:1;stroke:#000000;stroke-width:0.0155904;stroke-dasharray:none;stroke-opacity:1"
           d="M 0.6562286,2.969382 0.6368934,3.064449 C 0.77064471,2.952242 0.89499811,3.041607 0.95109863,3.159516 L 0.98493593,3.082174 C 0.89521498,2.9749072 0.80154029,2.9227087 0.6562286,2.969382 Z"
           id="path4522"
           sodipodi:nodetypes="ccccc" /><path
           style="fill:#ffd200;fill-opacity:1;stroke:#000000;stroke-width:0.0155904;stroke-dasharray:none;stroke-opacity:1"
           d="m 0.72863071,2.7758688 -0.0193352,0.095067 c 0.13375131,-0.112207 0.25810471,-0.022841 0.31420519,0.095067 l 0.033837,-0.077342 C 0.96761709,2.781394 0.8739424,2.7291955 0.72863071,2.7758688 Z"
           id="path4522-7"
           sodipodi:nodetypes="ccccc" /><path
           style="fill:#ffd200;fill-opacity:1;stroke:#000000;stroke-width:0.0155904;stroke-dasharray:none;stroke-opacity:1"
           d="M 0.85639045,2.54755 0.81969695,2.637357 C 0.97199767,2.552007 1.0775425,2.662958 1.1107151,2.7892489 l 0.047643,-0.069692 C 1.0901717,2.5974641 1.0078499,2.5287407 0.85639045,2.54755 Z"
           id="path4522-6"
           sodipodi:nodetypes="ccccc" /><path
           style="fill:#ffd200;fill-opacity:1;stroke:#000000;stroke-width:0.0155904;stroke-dasharray:none;stroke-opacity:1"
           d="m 1.0322837,2.3825864 -0.0647,0.073697 c 0.1449436,-0.056936 0.2171237,0.04087 0.2521688,0.1553254 l 0.054671,-0.076942 C 1.2097794,2.4182384 1.178304,2.3867038 1.0322837,2.3825864 Z"
           id="path4522-4"
           sodipodi:nodetypes="ccccc" /><path
           style="fill:#ffd200;fill-opacity:1;stroke:#000000;stroke-width:0.0155904;stroke-dasharray:none;stroke-opacity:1"
           d="m 1.2052801,2.2247145 -0.076054,0.067188 c 0.1714545,-0.032911 0.1866311,0.042841 0.1782437,0.1731464 l 0.059148,-0.076871 C 1.3259549,2.2910871 1.3355991,2.2433978 1.2278385,2.2134362 Z"
           id="path4522-5"
           sodipodi:nodetypes="cccccc" /><path
           style="fill:#ffd200;fill-opacity:1;stroke:#000000;stroke-width:0.0155904;stroke-dasharray:none;stroke-opacity:1"
           d="m 6.6793091,1.9622353 0.034742,0.012238 C 6.6454858,1.9958543 6.5859041,2.0970529 6.650336,2.2042466 L 6.5743548,2.1726949 C 6.5584526,2.0342337 6.5597934,2.0295223 6.6454702,1.9509553 Z"
           id="path4522-9-6"
           sodipodi:nodetypes="cccccc" /><path
           style="fill:#ffd200;fill-opacity:1;stroke:#000000;stroke-width:0.0155904;stroke-dasharray:none;stroke-opacity:1"
           d="m 7.8233994,2.6839428 c -0.1759495,0.014639 -0.2578675,0.1875768 -0.245176,0.2765034 0.039913,0.044161 0.1229954,0.06909 0.2277675,0.056102 0.054301,-0.030286 0.082763,-0.097147 0.03675,-0.2794322 z"
           id="path4520-6"
           sodipodi:nodetypes="ccccc" /><path
           style="fill:#ffd200;fill-opacity:1;stroke:#020202;stroke-width:0.0155904;stroke-dasharray:none;stroke-opacity:1"
           d="m 7.7100417,2.5008025 0.062736,0.078562 C 7.5946827,2.4816198 7.49227,2.7682822 7.483721,2.9117034 L 7.4035703,2.8618493 C 7.4447944,2.725549 7.5294168,2.4857894 7.7100417,2.5008025 Z"
           id="path4522-64"
           sodipodi:nodetypes="ccccc" /><path
           style="fill:#ffd200;fill-opacity:1;stroke:#000000;stroke-width:0.0155904;stroke-dasharray:none;stroke-opacity:1"
           d="m 7.5202579,2.3113489 0.088939,0.075584 C 7.3736427,2.3700238 7.3244221,2.6526311 7.3272294,2.7867924 l -0.08155,-0.050642 C 7.2557975,2.5591562 7.3476955,2.3766957 7.5202579,2.3113489 Z"
           id="path4522-7-4"
           sodipodi:nodetypes="ccccc" /><path
           style="fill:#ffd200;fill-opacity:1;stroke:#000000;stroke-width:0.0155904;stroke-dasharray:none;stroke-opacity:1"
           d="m 7.3475039,2.2109792 0.08351,0.048586 C 7.1474355,2.2199655 7.0965794,2.5119086 7.146477,2.6453061 L 7.0624605,2.5742 C 7.0340471,2.4101394 7.1310191,2.2093723 7.3475039,2.2109792 Z"
           id="path4522-6-5"
           sodipodi:nodetypes="ccccc" /><path
           style="fill:#ffd200;fill-opacity:1;stroke:#000000;stroke-width:0.0155904;stroke-dasharray:none;stroke-opacity:1"
           d="m 7.1271597,2.096887 0.115944,0.069282 C 7.0066344,2.1181118 6.9103369,2.3379454 6.9448241,2.4730959 L 6.8791793,2.4232348 C 6.8800394,2.2862579 6.9342507,2.1339438 7.1271597,2.096887 Z"
           id="path4522-4-7"
           sodipodi:nodetypes="ccccc" /><path
           style="fill:#ffd200;fill-opacity:1;stroke:#000000;stroke-width:0.0155904;stroke-dasharray:none;stroke-opacity:1"
           d="m 6.9473313,2.0368796 0.092301,0.036843 C 6.8680261,2.0458534 6.7432751,2.1732173 6.7799678,2.3361208 l -0.065016,-0.061214 c 0.00794,-0.1312272 0.084361,-0.2255161 0.1735309,-0.2396517 z"
           id="path4522-5-2"
           sodipodi:nodetypes="cccccc" /><g
           id="g5379"
           inkscape:label="teeth"><path
             style="fill:none;stroke:#000000;stroke-width:0.0155904;stroke-dasharray:none;stroke-opacity:1"
             d="m 3.3253608,6.1501047 c 0.012893,0.02578 0.012893,0.047265 1.1e-6,0.064452"
             id="path3599-43-3"
             sodipodi:nodetypes="cc" /><path
             style="fill:none;stroke:#000000;stroke-width:0.0155904;stroke-dasharray:none;stroke-opacity:1"
             d="m 3.7443011,6.1436595 c 0.00482,0.023758 0.012597,0.042209 -0.00323,0.103124"
             id="path3599-43-25"
             sodipodi:nodetypes="cc" /><path
             style="fill:none;stroke:#000000;stroke-width:0.0155904;stroke-dasharray:none;stroke-opacity:1"
             d="m 5.0816872,5.4362952 c 0.091494,0.1168669 0.1220882,0.2586453 0.1192383,0.4141065"
             id="path3599-43-2"
             sodipodi:nodetypes="cc" /><path
             style="fill:none;stroke:#000000;stroke-width:0.0121281;stroke-dasharray:none;stroke-opacity:1"
             d="m 4.2373542,6.0264308 c 0.018077,0.056963 0.025978,0.1145923 0.00968,0.1758504"
             id="path3599-43-4"
             sodipodi:nodetypes="cc" /><path
             style="fill:none;stroke:#000000;stroke-width:0.0155904;stroke-dasharray:none;stroke-opacity:1"
             d="m 4.6724914,5.8098086 c 0.01844,0.1007075 0.048773,0.192495 0.1015135,0.2674775"
             id="path3599-43"
             sodipodi:nodetypes="cc" /></g></g></g><path
       style="mix-blend-mode:normal;fill:#fff942;fill-opacity:1;stroke:none;stroke-width:0;stroke-dasharray:none;stroke-opacity:1;filter:url(#filter7767)"
       d="m 16.899711,7.1224745 -0.78109,-1.352886 -2.7e-4,-0.399211 7.32245,1.752097 c -2.05438,0.163042 -4.20455,0.202119 -6.54109,0 z"
       id="path7765"
       sodipodi:nodetypes="ccccc"
       transform="matrix(2.4804226,0,0,2.2527855,-18.835939,-5.8197024)" /><rect
       style="fill:#fff942;fill-opacity:1;stroke:none;stroke-width:0;stroke-dasharray:none;stroke-opacity:1"
       id="rect7823"
       width="0.66187394"
       height="0.7520355"
       x="15.451652"
       y="0.93809628"
       ry="0.1638227" /><ellipse
       style="mix-blend-mode:normal;fill:#fff942;fill-opacity:1;stroke:none;stroke-width:0;stroke-dasharray:none;stroke-opacity:1;filter:url(#filter7879)"
       id="path7877"
       cx="13.494123"
       cy="3.1627345"
       rx="0.91928566"
       ry="0.90345198"
       transform="matrix(2.0514704,0,0,2.1841915,-11.900207,-5.9699216)" /><circle
       style="fill:#ffffff;fill-opacity:1;stroke:none;stroke-width:0;stroke-dasharray:none;stroke-opacity:1"
       id="path17113"
       cx="2.6656265"
       cy="8.8350554"
       r="1.056814" /><circle
       style="fill:#ffffff;fill-opacity:1;stroke:none;stroke-width:0;stroke-dasharray:none;stroke-opacity:1"
       id="path17113-8"
       cx="18.3874"
       cy="8.8350554"
       r="1.056814" /></g></svg>
