<svg width="61" height="52" viewBox="0 0 61 52" fill="none" xmlns="http://www.w3.org/2000/svg">
<path d="M30.3482 51.1749C46.5568 51.1749 59.6964 39.9429 59.6964 26.0875C59.6964 12.232 46.5568 1 30.3482 1C14.1396 1 1 12.232 1 26.0875C1 39.9429 14.1396 51.1749 30.3482 51.1749Z" fill="#051EFF" stroke="black" stroke-width="1.38945"/>
<path d="M27.0925 22.031L23.9277 22.3015V24.7363L27.2508 24.8999V38.9394H30.732L30.7321 24.8715H35.1628V22.1909L31.1781 21.7661C31.1022 18.8006 30.516 16.4134 35.6329 17.2472C35.925 16.9311 36.6266 16.3843 36.7675 15.6015C36.6976 14.8504 36.517 14.3738 36.0723 14.0048C35.515 13.5294 34.6364 13.2765 33.5657 13.2358C32.149 13.3185 30.6428 14.1247 29.7406 14.8186C27.3017 16.9941 26.7694 19.3902 27.0925 22.031Z" fill="white" stroke="black" stroke-width="0.354587"/>
</svg>
