<svg width="122" height="77" viewBox="0 0 122 77" fill="none" xmlns="http://www.w3.org/2000/svg">
<path d="M40.0856 23.9379C46.6452 18.2875 61.7481 18.0732 70.1895 22.4303C77.5335 25.8391 85.3287 31.9804 88.8749 45.6447C90.9082 51.9167 92.1284 57.967 90.8403 63.3331C88.9776 68.0337 84.7355 70.8721 79.3897 72.8468C72.3361 75.3598 65.8404 76.0133 59.4226 76.4072C52.1144 76.9887 45.3338 76.008 38.8772 73.7268C34.6064 71.9119 30.352 70.0532 26.7119 66.5566C24.5778 64.1295 22.2154 62.2958 22.2809 54.1496C22.4693 49.763 22.741 45.3196 25.7546 39C27.0956 35.7561 28.4951 32.5257 32.3629 29.5798C36.4007 29.6896 39.8058 28.9389 40.0856 23.9379Z" fill="#FFE600" stroke="#F7F7F7" stroke-width="0.117848"/>
<path d="M55.1816 36.5049C59.4009 35.9474 63.2882 40.1725 64.8533 45.5637C67.1421 53.193 64.3809 56.4907 60.8833 57.7665C55.7357 58.5228 52.3783 54.9073 50.2792 49.9599C47.1552 42.7034 51.005 37.1361 55.1816 36.5049Z" fill="#707CD6" stroke="black" stroke-width="0.117848"/>
<path d="M61.0368 41.2391C60.4189 39.4634 54.9699 37.1536 54.3226 41.9318C52.8254 48.951 55.2181 51.2338 57.2001 52.9091C61.1604 54.5639 61.7967 52.3168 62.5821 50.2447C63.2942 45.3667 62.3126 43.1772 61.0368 41.2391Z" fill="black" stroke="black" stroke-width="0.117848"/>
<path d="M32.0286 29.2955C36.1122 29.805 39.1634 28.2087 40.1261 23.8241L36.2652 23.7976C35.0371 22.8304 34.0307 21.4643 33.1574 19.8586L31.3456 21.0842C33.5574 23.5979 32.9603 26.4325 32.0286 29.2955Z" fill="#F4E495" stroke="white" stroke-width="0.117848"/>
<path d="M70.642 32.8483C66.5584 33.3578 63.1342 31.9214 62.1714 27.5369C62.2444 25.3201 64.3421 25.0351 67.8175 25.512C69.0455 24.5448 69.7323 23.9248 70.6056 22.319L72.6305 23.518C67.6744 28.2431 74.3996 29.5591 70.9351 32.6619L70.642 32.8483Z" fill="#F4E495" stroke="white" stroke-width="0.117848"/>
<path d="M31.2966 21.0288C26.6445 14.8843 20.9193 8.20658 15.3203 6.71048C10.3354 12.121 8.57787 17.5708 5.37285 24.1939C3.68817 26.4981 1.78747 27.5643 1.0332 23.285C1.52239 17.1647 2.38002 11.84 12.7581 4.37431C15.2169 1.79821 17.1075 2.40444 18.8622 3.77141C24.7756 7.6397 29.1895 13.3823 33.1052 19.7477L31.2966 21.0288Z" fill="#F4E495" stroke="#F7F7F7" stroke-width="0.117848"/>
<path d="M13.7874 3.51334L12.6375 4.55089C14.9972 4.58231 14.9201 5.3013 14.9579 7.202L16.2915 6.80622C15.7873 4.55748 15.5526 4.27455 13.7874 3.51334Z" fill="#FFD200" stroke="black" stroke-width="0.0589244"/>
<path d="M70.7474 22.1592C76.5046 14.2136 85.111 6.24272 99.5268 1.04428C110.157 3.06703 117.855 6.87385 120.447 13.1161C122.934 20.8613 118.603 19.2287 115.85 18.2405C110.073 14.1378 104.449 9.77774 99.2711 4.67578C89.771 7.26882 81.0032 13.6281 72.9097 23.4554L70.7474 22.1592Z" fill="#F4E495" stroke="white" stroke-width="0.117848"/>
<path d="M31.2213 34.1791C36.5805 31.9568 41.4902 29.952 42.4122 33.3502C43.0887 35.6874 41.6926 36.2303 40.905 35.2718C39.6889 33.1297 35.3487 33.7981 31.2213 34.1791Z" fill="#383838" stroke="black" stroke-width="0.117848"/>
<path d="M65.0981 39.7243C60.988 32.6978 50.4614 29.8703 49.0047 35.3251C48.3282 37.6623 49.2448 38.0453 50.0323 37.0869C52.8453 32.8156 63.1888 36.3857 65.0981 39.7243Z" fill="#383838" stroke="black" stroke-width="0.117848"/>
<path d="M27.5888 63.8206C42.694 80.004 98.9444 72.5529 75.0146 46.662C86.7417 61.2456 48.3256 81.6632 27.5888 63.8206Z" fill="white" stroke="black" stroke-width="0.117848"/>
<path d="M36.1681 34.6724C30.9417 34.8072 28.2261 38.5149 26.6829 43.8911C25.3991 50.5154 27.1072 53.7738 30.3597 55.2946C36.5513 56.7816 39.3593 53.1385 41.1771 47.9942C42.8337 38.8481 40.3108 35.6146 36.1681 34.6724Z" fill="#707CD6" stroke="black" stroke-width="0.117848"/>
<path d="M33.184 38.5091C34.7277 37.5269 37.4508 34.4324 39.1521 39.8413C40.8597 47.0715 38.6672 48.5237 36.6476 50.2323C32.6874 51.8871 32.0511 49.64 31.2656 47.5679C30.5536 42.69 31.6417 40.2873 33.184 38.5091Z" fill="black" stroke="black" stroke-width="0.117848"/>
<g filter="url(#filter0_f_6_101)">
<path d="M35.5108 41.7755C36.5017 41.1889 36.7523 39.7798 36.0706 38.6282C35.3889 37.4766 34.0329 37.0186 33.042 37.6052C32.0511 38.1918 31.8005 39.6009 32.4822 40.7525C33.1639 41.9041 34.5199 42.3621 35.5108 41.7755Z" fill="#FBFCFF"/>
<path d="M35.5108 41.7755C36.5017 41.1889 36.7523 39.7798 36.0706 38.6282C35.3889 37.4766 34.0329 37.0186 33.042 37.6052C32.0511 38.1918 31.8005 39.6009 32.4822 40.7525C33.1639 41.9041 34.5199 42.3621 35.5108 41.7755Z" stroke="#F7F7F7" stroke-width="0.124627"/>
</g>
<g filter="url(#filter1_f_6_101)">
<path d="M57.6634 43.9887C58.6544 43.402 58.905 41.9929 58.2233 40.8413C57.5415 39.6897 56.1856 39.2317 55.1947 39.8183C54.2037 40.405 53.9531 41.814 54.6348 42.9656C55.3166 44.1172 56.6725 44.5753 57.6634 43.9887Z" fill="white"/>
<path d="M57.6634 43.9887C58.6544 43.402 58.905 41.9929 58.2233 40.8413C57.5415 39.6897 56.1856 39.2317 55.1947 39.8183C54.2037 40.405 53.9531 41.814 54.6348 42.9656C55.3166 44.1172 56.6725 44.5753 57.6634 43.9887Z" stroke="#F7F7F7" stroke-width="0.124627"/>
</g>
<g filter="url(#filter2_f_6_101)">
<path d="M31.7718 39.8413C30.1012 40.9556 28.5091 44.7505 29.7203 48.8735C30.6314 51.3645 31.8063 51.3937 32.9175 52.0174C35.89 52.4278 36.9924 51.046 38.3262 49.8859L39.2054 47.7278C37.1707 50.3344 34.9824 52.2212 31.8251 49.5662C29.844 45.2711 30.9371 42.6255 31.7718 39.8413Z" fill="#0054FF"/>
</g>
<g filter="url(#filter3_f_6_101)">
<path d="M53.7408 42.3212C52.2784 43.7998 51.4945 46.6644 52.6484 50.6873C53.5595 53.1783 54.4413 53.9269 55.5525 54.5506C58.525 54.961 59.4676 54.9913 60.8013 53.8312L61.9737 52.499C58.8347 54.7113 57.3237 53.6675 55.0463 51.3267C53.0652 47.0316 53.4123 44.7057 54.2469 41.9215L53.7408 42.3212Z" fill="#0054FF"/>
</g>
<path d="M23.9386 49.5396L26.3898 48.9801" stroke="black" stroke-width="0.117848"/>
<path d="M24.8177 53.4425L27.0561 52.2975" stroke="black" stroke-width="0.117848"/>
<path d="M26.798 56.0117L28.2197 53.938" stroke="black" stroke-width="0.117848"/>
<path d="M28.9572 57.4363L29.4178 54.9646" stroke="black" stroke-width="0.117848"/>
<path d="M59.5166 60.497L59.5522 57.983" stroke="black" stroke-width="0.117848"/>
<path d="M62.0143 57.4626L63.6626 59.3612" stroke="black" stroke-width="0.117848"/>
<path d="M64.0687 55.5395L66.3507 56.5951" stroke="black" stroke-width="0.117848"/>
<path d="M65.3383 53.1067L67.8521 53.0597" stroke="black" stroke-width="0.117848"/>
<path d="M1.18494 21.7768C3.30534 21.0797 4.65453 21.9248 5.71437 23.3488C5.36872 24.2423 4.42388 26.2459 2.59705 26.0931C1.43033 25.6801 1.00198 24.1789 1.18494 21.7768Z" fill="#FFD200" stroke="black" stroke-width="0.0589244"/>
<path d="M1.85103 18.1L1.53131 19.672C3.74295 17.8166 5.79918 19.2943 6.72683 21.244L7.28635 19.9651C5.80277 18.1914 4.25382 17.3283 1.85103 18.1Z" fill="#FFD200" stroke="black" stroke-width="0.0589244"/>
<path d="M3.04823 14.9002L2.72852 16.4722C4.94015 14.6168 6.99639 16.0945 7.92403 18.0442L8.48354 16.7653C6.99997 14.9916 5.45102 14.1284 3.04823 14.9002Z" fill="#FFD200" stroke="black" stroke-width="0.0589244"/>
<path d="M5.16076 11.1249L4.55402 12.6099C7.07237 11.1986 8.81761 13.0332 9.36613 15.1215L10.1539 13.9691C9.02643 11.9502 7.66521 10.8138 5.16076 11.1249Z" fill="#FFD200" stroke="black" stroke-width="0.0589244"/>
<path d="M8.06923 8.39709L6.99939 9.6157C9.39609 8.67424 10.5896 10.2915 11.1691 12.1841L12.0731 10.9118C11.0042 8.98661 10.4837 8.46518 8.06923 8.39709Z" fill="#FFD200" stroke="black" stroke-width="0.0589244"/>
<path d="M10.9298 5.78662L9.67224 6.8976C12.5073 6.35341 12.7583 7.606 12.6196 9.76065L13.5976 8.48956C12.9252 6.88412 13.0847 6.09556 11.3028 5.60013L10.9298 5.78662Z" fill="#FFD200" stroke="black" stroke-width="0.0589244"/>
<path d="M101.445 1.44641L102.02 1.64877C100.886 2.00231 99.9008 3.67567 100.966 5.44817L99.7098 4.92645C99.4469 2.63693 99.469 2.55903 100.886 1.25989L101.445 1.44641Z" fill="#FFD200" stroke="black" stroke-width="0.0589244"/>
<path d="M120.363 13.3802C117.454 13.6222 116.099 16.4818 116.309 17.9523C116.969 18.6825 118.343 19.0947 120.075 18.8799C120.973 18.3791 121.444 17.2736 120.683 14.2594L120.363 13.3802Z" fill="#FFD200" stroke="black" stroke-width="0.0589244"/>
<path d="M118.489 10.3519L119.526 11.6509C116.581 10.0347 114.888 14.7747 114.747 17.1463L113.421 16.3219C114.103 14.0681 115.502 10.1036 118.489 10.3519Z" fill="#FFD200" stroke="#020202" stroke-width="0.0589244"/>
<path d="M115.351 7.21915L116.821 8.46896C112.926 8.18936 112.112 12.8624 112.159 15.0808L110.81 14.2434C110.978 11.3167 112.497 8.29968 115.351 7.21915Z" fill="#FFD200" stroke="black" stroke-width="0.0589244"/>
<path d="M112.494 5.55952L113.875 6.3629C109.186 5.70811 108.345 10.5355 109.17 12.7413L107.781 11.5655C107.311 8.85271 108.914 5.53294 112.494 5.55952Z" fill="#FFD200" stroke="black" stroke-width="0.0589244"/>
<path d="M108.851 3.67294L110.768 4.81855C106.858 4.0239 105.265 7.65895 105.836 9.89372L104.75 9.06924C104.764 6.80427 105.661 4.28569 108.851 3.67294Z" fill="#FFD200" stroke="black" stroke-width="0.0589244"/>
<path d="M105.877 2.6807L107.403 3.28991C104.566 2.82909 102.503 4.9351 103.11 7.62878L102.035 6.61658C102.166 4.44669 103.43 2.88758 104.904 2.65384L105.877 2.6807Z" fill="#FFD200" stroke="black" stroke-width="0.0589244"/>
<path d="M45.9863 70.6947C46.1995 71.121 46.1995 71.4762 45.9863 71.7604" stroke="black" stroke-width="0.0589244"/>
<path d="M52.9136 70.5881C52.9933 70.981 53.1219 71.2861 52.8602 72.2933" stroke="black" stroke-width="0.0589244"/>
<path d="M75.0279 58.8915C76.5408 60.824 77.0467 63.1683 76.9996 65.7389" stroke="black" stroke-width="0.0589244"/>
<path d="M61.0665 68.6497C61.3654 69.5916 61.496 70.5445 61.2265 71.5574" stroke="black" stroke-width="0.0458385"/>
<path d="M68.2617 65.0677C68.5666 66.733 69.0681 68.2507 69.9402 69.4906" stroke="black" stroke-width="0.0589244"/>
<defs>
<filter id="filter0_f_6_101" x="31.7811" y="37.032" width="4.9905" height="5.3167" filterUnits="userSpaceOnUse" color-interpolation-filters="sRGB">
<feFlood flood-opacity="0" result="BackgroundImageFix"/>
<feBlend mode="normal" in="SourceGraphic" in2="BackgroundImageFix" result="shape"/>
<feGaussianBlur stdDeviation="0.127554" result="effect1_foregroundBlur_6_101"/>
</filter>
<filter id="filter1_f_6_101" x="54.0187" y="39.3301" width="4.82063" height="5.14683" filterUnits="userSpaceOnUse" color-interpolation-filters="sRGB">
<feFlood flood-opacity="0" result="BackgroundImageFix"/>
<feBlend mode="normal" in="SourceGraphic" in2="BackgroundImageFix" result="shape"/>
<feGaussianBlur stdDeviation="0.0850854" result="effect1_foregroundBlur_6_101"/>
</filter>
<filter id="filter2_f_6_101" x="29.1612" y="39.7076" width="10.1779" height="12.5173" filterUnits="userSpaceOnUse" color-interpolation-filters="sRGB">
<feFlood flood-opacity="0" result="BackgroundImageFix"/>
<feBlend mode="normal" in="SourceGraphic" in2="BackgroundImageFix" result="shape"/>
<feGaussianBlur stdDeviation="0.0668155" result="effect1_foregroundBlur_6_101"/>
</filter>
<filter id="filter3_f_6_101" x="52.0301" y="41.8578" width="10.0073" height="13.0152" filterUnits="userSpaceOnUse" color-interpolation-filters="sRGB">
<feFlood flood-opacity="0" result="BackgroundImageFix"/>
<feBlend mode="normal" in="SourceGraphic" in2="BackgroundImageFix" result="shape"/>
<feGaussianBlur stdDeviation="0.0318386" result="effect1_foregroundBlur_6_101"/>
</filter>
</defs>
</svg>
